<?xml version="1.0" encoding="UTF-8" standalone="no"?>
<!DOCTYPE svg PUBLIC "-//W3C//DTD SVG 1.1//EN" "http://www.w3.org/Graphics/SVG/1.1/DTD/svg11.dtd">
<svg width="100%" height="100%" viewBox="0 0 623 558" version="1.1" xmlns="http://www.w3.org/2000/svg" xmlns:xlink="http://www.w3.org/1999/xlink" xml:space="preserve" xmlns:serif="http://www.serif.com/" style="fill-rule:evenodd;clip-rule:evenodd;stroke-linejoin:round;stroke-miterlimit:2;">
    <g transform="matrix(4.16667,0,0,4.16667,479.227,188.884)">
        <path d="M0,36.621L19.296,31.028L28.239,19.661L23.003,16.121L29.902,15.88L15.735,0L34.367,15.725L32.385,22.464L24.825,29.427L22.255,36.188L0,36.621Z" style="fill:rgb(0,25,72);"/>
    </g>
    <g transform="matrix(4.16667,0,0,4.16667,502.392,385.41)">
        <path d="M0,-1.849L14.535,-4.889L8.722,3.04L0,-1.849Z" style="fill:rgb(0,25,72);"/>
    </g>
    <g transform="matrix(4.16667,0,0,4.16667,457.787,180.967)">
        <path d="M0,0.835L8.445,5.011L5.186,-0.323L5.926,-4.176L-5.038,-1.657L0,0.835Z" style="fill:rgb(0,25,72);"/>
    </g>
    <g transform="matrix(0.165734,-4.16337,-4.16337,-0.165734,532.68,103.441)">
        <path d="M-15.182,0.075L-8.52,0.075L0.068,16.064L-9.487,3.852L-15.182,0.075Z" style="fill:rgb(0,25,72);"/>
    </g>
    <g transform="matrix(4.16667,0,0,4.16667,128.625,154.217)">
        <path d="M0,59.819L6.308,57.202L3.038,66.976L13.29,60.497L12.786,64.559L1.273,87.868L16.621,74.465L21.134,86.838L33.807,67.15L28.452,86.831L40.078,79.395L36.413,96.831L50.597,76.773L55.896,84.222L56.994,72.107L68.004,87.686L66.546,68.069L76.156,76.443L73.86,59.951L80.282,43.459L70.81,41.619L80.816,28.775L57.765,29.855L62.71,3.863L40.055,7.392L53.09,-4.204L72.846,-6.881L57.002,-19.191L76.666,-11.265L88.367,-25.829L52.351,-36.108L53.946,-32.612L35.525,-37.012L38.26,-30.507L20.35,-29.639L-8.072,-14.441L15.708,-15.671L-2.78,-9.603L-27.608,8.215L-4.822,1.385L-23.952,16.146L-11.031,13.089L-30.87,37.392L-11.815,26.113L-29.265,52.45L-7.922,41.108L-14.425,52.503L0.27,43.968L0.224,46.714L-10.747,67.557L0,59.819Z" style="fill:rgb(0,25,72);"/>
    </g>
</svg>
