<?xml version="1.0" encoding="UTF-8" standalone="no"?>
<!DOCTYPE svg PUBLIC "-//W3C//DTD SVG 1.1//EN" "http://www.w3.org/Graphics/SVG/1.1/DTD/svg11.dtd">
<svg width="100%" height="100%" viewBox="0 0 623 558" version="1.1" xmlns="http://www.w3.org/2000/svg" xmlns:xlink="http://www.w3.org/1999/xlink" xml:space="preserve" xmlns:serif="http://www.serif.com/" style="fill-rule:evenodd;clip-rule:evenodd;stroke-linejoin:round;stroke-miterlimit:2;">
    <g transform="matrix(3.84864,-1.5966,-1.5966,-3.84864,153.495,419.866)">
        <path d="M-4.004,5.923L8.144,5.923L27.894,15.665L15.797,25.884L-4.004,5.923Z" style="fill:rgb(182,91,33);"/>
    </g>
    <g transform="matrix(4.16667,0,0,4.16667,216.683,376.812)">
        <path d="M0,33.416L21.014,0.771L2.15,0L0,33.416Z" style="fill:rgb(201,154,21);"/>
    </g>
    <g transform="matrix(4.16667,0,0,4.16667,445.95,372.822)">
        <path d="M0,23.979L-14.64,11.222L-8.755,0L0,23.979Z" style="fill:rgb(119,89,17);"/>
    </g>
    <g transform="matrix(4.16667,0,0,4.16667,28.8229,164.348)">
        <path d="M0,13.715L20.563,8.848L23.975,0L0,13.715Z" style="fill:rgb(172,107,25);"/>
    </g>
    <g transform="matrix(4.16111,-0.215096,-0.215096,-4.16111,96.2226,98.2746)">
        <path d="M-0.243,1.029L37.337,1.029L39.851,9.397L19.377,7.507L-0.243,1.029Z" style="fill:rgb(251,170,38);"/>
    </g>
    <g transform="matrix(4.16667,0,0,4.16667,411.983,386.964)">
        <path d="M0,31.828L-2.367,0L-10.353,8.989L0,31.828Z" style="fill:rgb(142,104,22);"/>
    </g>
    <g transform="matrix(4.16667,0,0,4.16667,361.53,404.007)">
        <path d="M0,24.273L1.756,4.899L-4.346,0L0,24.273Z" style="fill:rgb(119,89,17);"/>
    </g>
    <g transform="matrix(4.16667,0,0,4.16667,247.178,404.446)">
        <path d="M0,26.776L15.937,16.584L17.775,0L0,26.776Z" style="fill:rgb(128,92,21);"/>
    </g>
    <g transform="matrix(4.16667,0,0,4.16667,141.286,354.419)">
        <path d="M0,18.928L13.748,10.24L14.825,0L0,18.928Z" style="fill:rgb(163,97,19);"/>
    </g>
    <g transform="matrix(4.16667,0,0,4.16667,68.5242,292.399)">
        <path d="M0,19.339L15.898,10.12L14.161,0L0,19.339Z" style="fill:rgb(193,125,24);"/>
    </g>
    <g transform="matrix(4.16667,0,0,4.16667,6.6875,298.705)">
        <path d="M0,17.773L32.722,0.384L21.896,0L0,17.773Z" style="fill:rgb(235,104,32);"/>
    </g>
    <g transform="matrix(4.16667,0,0,4.16667,5.68434e-14,201.215)">
        <path d="M0,26.113L24.606,11.548L27.48,0L0,26.113Z" style="fill:rgb(217,172,14);"/>
    </g>
    <g transform="matrix(4.16667,0,0,4.16667,13.5925,114.599)">
        <path d="M0,17.723L35.745,7.009L36.903,0L0,17.723Z" style="fill:rgb(251,170,38);"/>
    </g>
    <g transform="matrix(4.16667,0,0,4.16667,276.65,38.1883)">
        <path d="M0,-9.165L3.854,0L18.58,-0.255L0,-9.165Z" style="fill:rgb(227,124,28);"/>
    </g>
    <g transform="matrix(4.16667,0,0,4.16667,346.755,46.7854)">
        <path d="M0,-10.325L4.712,0L15.47,-3.979L0,-10.325Z" style="fill:rgb(227,124,28);"/>
    </g>
    <g transform="matrix(-1.51192,3.88268,3.88268,1.51192,487.576,456.025)">
        <path d="M-24.872,-15.979L-7.174,-15.979L7.362,-7.855L-6.635,-23.844L-24.872,-15.979Z" style="fill:rgb(150,123,16);"/>
    </g>
    <g transform="matrix(4.16667,0,0,4.16667,423.67,395.638)">
        <path d="M0,-16.322L9.473,-14.482L-9.562,11.765L-23.649,-23.03L-13.045,-28.087L-0.507,-24.74L0,-16.322Z" style="fill:rgb(186,151,26);"/>
    </g>
    <g transform="matrix(4.16667,0,0,4.16667,436.798,180.234)">
        <path d="M0,-1.481L5.039,1.011L9.261,2.519L10.224,-0.148L10.965,-4L0,-1.481Z" style="fill:rgb(186,151,26);"/>
    </g>
    <g transform="matrix(-1.24184,3.9773,3.9773,1.24184,437.911,241.616)">
        <path d="M13.745,-13.961C13.53,-13.271 5.481,8.614 5.481,8.614L13.745,2.57L15.231,-1.899L13.745,-13.961Z" style="fill:rgb(150,123,16);"/>
    </g>
    <g transform="matrix(4.16667,0,0,4.16667,544.798,265.415)">
        <path d="M0,-18.368L18.632,-2.643L16.385,0L0,-18.368Z" style="fill:rgb(186,151,26);"/>
    </g>
    <g transform="matrix(-3.06479,2.82279,2.82279,3.06479,571.3,329.223)">
        <path d="M-15.168,-1.28L-1.514,-1.28L2.783,-3.442L-14.729,-6.266L-15.168,-1.28Z" style="fill:rgb(150,123,16);"/>
    </g>
    <g transform="matrix(4.16667,0,0,4.16667,622.43,282.483)">
        <path d="M0,-6.739L-11.364,-6.343L-1.982,0L0,-6.739Z" style="fill:rgb(128,92,21);"/>
    </g>
    <g transform="matrix(4.16667,0,0,4.16667,479.23,311.493)">
        <path d="M0,7.196L24.827,0L22.255,6.762L0,7.196Z" style="fill:rgb(128,92,21);"/>
    </g>
    <g transform="matrix(4.16667,0,0,4.16667,502.399,385.415)">
        <path d="M0,-1.85L14.535,-4.889L8.721,3.039L0,-1.85Z" style="fill:rgb(128,92,21);"/>
    </g>
    <g transform="matrix(4.16667,0,0,4.16667,465.365,327.63)">
        <path d="M0,-12.844L-10.007,0L-12.941,-6.671L0,-12.844Z" style="fill:rgb(128,92,21);"/>
    </g>
    <g transform="matrix(4.16667,0,0,4.16667,479.399,201.844)">
        <path d="M0,-5.334L-5.185,-4.176L3.26,0L0,-5.334Z" style="fill:rgb(128,92,21);"/>
    </g>
    <g transform="matrix(-3.58939,-2.11598,-2.11598,3.58939,478.393,92.7867)">
        <path d="M-16.488,3.127L1.662,3.127L-13.619,5.766L-15.521,5.545L-16.488,3.127Z" style="fill:rgb(186,151,26);"/>
    </g>
    <g transform="matrix(4.16667,0,0,4.16667,141.736,372.757)">
        <path d="M0,-48.921L-32.412,0L-7.005,-18.455L0,-48.921Z" style="fill:rgb(246,139,30);"/>
    </g>
    <g transform="matrix(4.16667,0,0,4.16667,102.429,269.995)">
        <path d="M0,-20.511L-24.583,9.606L24.186,-30.117L0,-20.511Z" style="fill:rgb(255,217,0);"/>
    </g>
    <g transform="matrix(4.16667,0,0,4.16667,317.442,221.495)">
        <path d="M0,-30.581L-13.287,-24.715L-20.045,-19.003L-36.404,-14.51L-69.269,0L-36.021,-25.655L0,-30.581Z" style="fill:rgb(214,184,67);"/>
    </g>
    <g transform="matrix(-3.38137,2.43464,2.43464,3.38137,100.218,341.156)">
        <path d="M3.204,16.119L16.447,16.119L-4.634,5.615L-18.442,1.034L3.204,16.119Z" style="fill:rgb(245,126,37);"/>
    </g>
    <g transform="matrix(4.16667,0,0,4.16667,432.155,87.8958)">
        <path d="M0,9.036L-31.714,-0.053L-42.514,0.38L-63.552,6.409L-40.818,7.349L-28.054,9.089L0,9.036Z" style="fill:rgb(254,189,59);"/>
    </g>
    <g transform="matrix(4.16667,0,0,4.16667,214.301,492.318)">
        <path d="M0,-10.119L-19.288,6.725L-7.648,-16.844L0,-10.119Z" style="fill:rgb(195,149,25);"/>
    </g>
    <g transform="matrix(4.16667,0,0,4.16667,286.035,372.98)">
        <path d="M0,-54.847L-21.519,-32.448L-27.301,-21.993L-37.388,-15.565L-52.203,0L-43.97,-14.427L-42.9,-19.912L-31.217,-36.738L-26.639,-41.481L0,-54.847Z" style="fill:rgb(253,184,18);"/>
    </g>
    <g transform="matrix(4.16667,0,0,4.16667,182.432,376.407)">
        <path d="M0,10.975L8.22,33.513L12.344,9.745L17.186,-4.371L16.273,-12.899L17.945,-22.538L0,10.975Z" style="fill:rgb(255,228,109);"/>
    </g>
    <g transform="matrix(4.16667,0,0,4.16667,330.42,423.218)">
        <path d="M0,-51.346L-35.645,0L-34.452,-9.606L-35.633,-15.681L-31.624,-30.638L-12.992,-47.159L0,-51.346Z" style="fill:rgb(255,217,0);"/>
    </g>
    <g transform="matrix(4.16667,0,0,4.16667,389.921,292.395)">
        <path d="M0,-29.299L-5.225,-1.841L-11.884,0L-16.03,-12.705L-14.28,-19.948L-9.304,-24.977L0,-29.299Z" style="fill:rgb(193,125,24);"/>
    </g>
    <g transform="matrix(4.16667,0,0,4.16667,345.441,384.032)">
        <path d="M0,9.934L15.97,32.532L-3.064,-22.598L0,9.934Z" style="fill:rgb(150,123,16);"/>
    </g>
    <g transform="matrix(2.41542,3.39512,3.39512,-2.41542,308.119,364.334)">
        <path d="M1.607,-9.146L34.968,-9.146L-7.766,14.168L-5.216,2.966L1.607,-9.146Z" style="fill:rgb(214,184,67);"/>
    </g>
    <g transform="matrix(4.16667,0,0,4.16667,359.971,391.885)">
        <path d="M0,-41.847L-6.644,-31.765L-10.661,-28.112L-13.288,-21.682L-16.944,-13.697L-18.965,0L-5.402,-21.154L0,-41.847Z" style="fill:rgb(255,222,105);"/>
    </g>
    <g transform="matrix(-4.11704,0.641136,0.641136,4.11704,209.429,309.527)">
        <path d="M-47.943,-26.347L-25.015,-26.347L-7.691,-15.146L2.039,-3.711L-47.943,-26.347Z" style="fill:rgb(253,184,36);"/>
    </g>
    <g transform="matrix(4.16667,0,0,4.16667,496.824,21.5388)">
        <path d="M0,6.013L-36.017,-4.266L-28.771,0.579L-25.03,5.365L-15.682,9.332L-10.539,10.279L0,6.013Z" style="fill:rgb(255,229,22);"/>
    </g>
    <g transform="matrix(4.16667,0,0,4.16667,308.138,94.0446)">
        <path d="M0,-16.3L-22.732,-15.199L-51.155,0L-28.195,-4.914L-13.113,-6.991L12.677,-13.66L0,-16.3Z" style="fill:rgb(255,229,22);"/>
    </g>
    <g transform="matrix(4.16667,0,0,4.16667,366.14,0)">
        <path d="M0,17.821L13.931,16.899L15.682,14.502L2.593,5.748L-21.478,0L-8.792,10.526L-7.061,14.523L0,17.821Z" style="fill:rgb(251,170,38);"/>
    </g>
    <g transform="matrix(4.16667,0,0,4.16667,250.236,220.749)">
        <path d="M0,24.459L4.255,27.212L13.308,19.159L19.692,9.308L19.244,-2.753L0,24.459Z" style="fill:rgb(195,149,25);"/>
    </g>
    <g transform="matrix(-1.60187,3.84644,3.84644,1.60187,309.712,414.322)">
        <path d="M-24.829,-11.387L-15.085,-11.387L7.593,-16.556L-14.82,-21.635L-24.829,-11.387Z" style="fill:rgb(253,184,18);"/>
    </g>
    <g transform="matrix(4.16667,0,0,4.16667,233.867,299.138)">
        <path d="M0,28.289L11.3,22.259L17.33,0L0,28.289Z" style="fill:rgb(143,104,13);"/>
    </g>
    <g transform="matrix(4.16667,0,0,4.16667,280.949,516.012)">
        <path d="M0,-29.791L-8.105,0L8.75,-19.731L0,-29.791Z" style="fill:rgb(186,151,26);"/>
    </g>
    <g transform="matrix(4.16667,0,0,4.16667,295.524,208.804)">
        <path d="M0,-5.709L13.202,-17.304L4.483,-17.41L-3.176,-15.11L-28.233,11.701L-6.211,-0.167L0,-5.709Z" style="fill:rgb(220,135,26);"/>
    </g>
    <g transform="matrix(4.12896,-0.559298,-0.559298,-4.12896,284.702,154.259)">
        <path d="M-0.302,2.079L35.993,2.079L-4.229,9.23L-5.367,5.217L-0.302,2.079Z" style="fill:rgb(193,125,24);"/>
    </g>
    <g transform="matrix(3.29029,2.55639,2.55639,-3.29029,379.879,85.4705)">
        <path d="M-4.255,0.103L15.809,0.103L-17.824,-15.682L-14.482,-9.759L-4.255,0.103Z" style="fill:rgb(255,229,22);"/>
    </g>
    <g transform="matrix(4.16667,0,0,4.16667,366.14,50.0375)">
        <path d="M0,5.812L-8.792,-1.483L-43.1,5.859L-30.671,5.845L-24.217,7.295L0,5.812Z" style="fill:rgb(247,147,29);"/>
    </g>
    <g transform="matrix(4.16667,0,0,4.16667,167.357,74.2525)">
        <path d="M0,9.683L17.037,0.034L47.708,0L0,9.683Z" style="fill:rgb(251,170,38);"/>
    </g>
    <g transform="matrix(-3.95892,1.29924,1.29924,3.95892,36.9795,220.644)">
        <path d="M-56.863,-18.281L-26.223,-18.281L2.923,-9.092L-40.11,-13.51L-56.863,-18.281Z" style="fill:rgb(255,239,0);"/>
    </g>
    <g transform="matrix(-2.47739,-3.35017,-3.35017,2.47739,190.673,96.4362)">
        <path d="M-22.608,-10.629L-14.45,-10.629L-8.911,14.026L-18.102,5.202L-22.608,-10.629Z" style="fill:rgb(173,134,30);"/>
    </g>
    <g transform="matrix(-1.71841,3.79581,3.79581,1.71841,258.498,148.354)">
        <path d="M11.336,-18.025L21.944,-18.025L25.793,-15.336L-3.187,5.408L11.336,-18.025Z" style="fill:rgb(208,158,28);"/>
    </g>
    <g transform="matrix(4.16667,0,0,4.16667,155.963,260.169)">
        <path d="M0,-9.663L-8.112,2.021L-22.122,14.28L-6.864,-13.427L3.512,-23.943L0,-9.663Z" style="fill:rgb(255,222,105);"/>
    </g>
    <g transform="matrix(4.16667,0,0,4.16667,63.7879,219.908)">
        <path d="M0,23.943L9.37,22.31L22.122,0L0,23.943Z" style="fill:rgb(207,152,27);"/>
    </g>
    <g transform="matrix(4.16667,0,0,4.16667,181.126,226.422)">
        <path d="M0,6.656L0.882,8.739L1.89,15.402L4.207,16.593L27.456,-9.937L0,6.656Z" style="fill:rgb(244,125,48);"/>
    </g>
    <g transform="matrix(4.16667,0,0,4.16667,198.653,363.174)">
        <path d="M0,-16.228L-2.563,-8.427L-5.593,-7.609L-16.806,9.669L-4.093,-25.897L0,-16.228Z" style="fill:rgb(227,112,31);"/>
    </g>
    <g transform="matrix(2.80433,-3.08169,-3.08169,-2.80433,201.597,431.984)">
        <path d="M-9.973,10.495L6.282,10.495L23.741,22.56L13.602,20.895L-9.973,10.495Z" style="fill:rgb(246,136,31);"/>
    </g>
    <g transform="matrix(4.16667,0,0,4.16667,130.251,333.118)">
        <path d="M0,-5.998L-0.39,16.883L15.869,-22.881L0,-5.998Z" style="fill:rgb(255,222,105);"/>
    </g>
    <g transform="matrix(4.16667,0,0,4.16667,326.345,557.681)">
        <path d="M0,-52.523L3.145,-20.058L-11.039,0L0,-52.523Z" style="fill:rgb(150,123,16);"/>
    </g>
    <g transform="matrix(4.16667,0,0,4.16667,448.069,46.5929)">
        <path d="M0,14.565L11.701,0L-19.663,6.639L0,14.565Z" style="fill:rgb(247,143,49);"/>
    </g>
    <g transform="matrix(4.16667,0,0,4.16667,371.816,320.897)">
        <path d="M0,30.059L4.833,0L-3.868,8.562L0,30.059Z" style="fill:rgb(214,184,67);"/>
    </g>
    <g transform="matrix(4.16667,0,0,4.16667,529.855,138.897)">
        <path d="M0,6.658L0.265,0L-3.547,0.817L0,6.658Z" style="fill:rgb(128,92,21);"/>
    </g>
</svg>
