<?xml version="1.0" encoding="UTF-8" standalone="no"?>
<!DOCTYPE svg PUBLIC "-//W3C//DTD SVG 1.1//EN" "http://www.w3.org/Graphics/SVG/1.1/DTD/svg11.dtd">
<svg width="100%" height="100%" viewBox="0 0 623 558" version="1.1" xmlns="http://www.w3.org/2000/svg" xmlns:xlink="http://www.w3.org/1999/xlink" xml:space="preserve" xmlns:serif="http://www.serif.com/" style="fill-rule:evenodd;clip-rule:evenodd;stroke-linejoin:round;stroke-miterlimit:2;">
    <g transform="matrix(4.16667,0,0,4.16667,-33.7667,-0.420888)">
        <path d="M38.974,96.931L50.196,92.276L64.705,75.711L49.615,70.906L38.974,96.931Z" style="fill:rgb(196,60,150);"/>
    </g>
    <g transform="matrix(4.16667,0,0,4.16667,-33.7667,-0.420888)">
        <path d="M60.108,123.949L81.121,91.306L62.258,90.535L60.108,123.949Z" style="fill:rgb(0,78,149);"/>
    </g>
    <g transform="matrix(4.16667,0,0,4.16667,-33.7667,-0.420888)">
        <path d="M115.131,113.555L100.491,100.799L106.376,89.576L115.131,113.555Z" style="fill:rgb(30,55,134);"/>
    </g>
    <g transform="matrix(4.16667,0,0,4.16667,-33.7667,-0.420888)">
        <path d="M15.022,53.259L35.585,48.392L38.996,39.544L15.022,53.259Z" style="fill:rgb(239,70,56);"/>
    </g>
    <g transform="matrix(4.16667,0,0,4.16667,-33.7667,-0.420888)">
        <path d="M30.902,22.671L68.431,20.731L70.51,12.245L50.16,15.189L30.902,22.671Z" style="fill:rgb(251,170,38);"/>
    </g>
    <g transform="matrix(4.16667,0,0,4.16667,-33.7667,-0.420888)">
        <path d="M106.979,124.799L104.613,92.971L96.626,101.96L106.979,124.799Z" style="fill:rgb(0,170,231);"/>
    </g>
    <g transform="matrix(4.16667,0,0,4.16667,-33.7667,-0.420888)">
        <path d="M94.87,121.334L96.626,101.96L90.525,97.061L94.87,121.334Z" style="fill:rgb(0,136,165);"/>
    </g>
    <g transform="matrix(4.16667,0,0,4.16667,-33.7667,-0.420888)">
        <path d="M67.427,123.943L83.364,113.749L85.201,97.167L67.427,123.943Z" style="fill:rgb(0,166,212);"/>
    </g>
    <g transform="matrix(4.16667,0,0,4.16667,-33.7667,-0.420888)">
        <path d="M42.012,104.088L55.76,95.4L56.837,85.16L42.012,104.088Z" style="fill:rgb(135,0,87);"/>
    </g>
    <g transform="matrix(4.16667,0,0,4.16667,-33.7667,-0.420888)">
        <path d="M24.55,89.615L40.448,80.396L38.711,70.276L24.55,89.615Z" style="fill:rgb(186,0,110);"/>
    </g>
    <g transform="matrix(4.16667,0,0,4.16667,-33.7667,-0.420888)">
        <path d="M9.709,89.562L42.431,72.174L31.605,71.789L9.709,89.562Z" style="fill:rgb(218,33,49);"/>
    </g>
    <g transform="matrix(4.16667,0,0,4.16667,-33.7667,-0.420888)">
        <path d="M8.104,74.505L32.71,59.939L35.585,48.392L8.104,74.505Z" style="fill:rgb(184,17,55);"/>
    </g>
    <g transform="matrix(4.16667,0,0,4.16667,-33.7667,-0.420888)">
        <path d="M11.366,45.327L47.111,34.614L48.269,27.604L11.366,45.327Z" style="fill:rgb(251,170,38);"/>
    </g>
    <g transform="matrix(4.16667,0,0,4.16667,-33.7667,-0.420888)">
        <path d="M74.499,0.101L78.353,9.266L93.079,9.011L74.499,0.101Z" style="fill:rgb(242,103,33);"/>
    </g>
    <g transform="matrix(4.16667,0,0,4.16667,-33.7667,-0.420888)">
        <path d="M91.324,1.005L96.037,11.329L106.795,7.35L91.324,1.005Z" style="fill:rgb(242,103,33);"/>
    </g>
    <g transform="matrix(4.16667,0,0,4.16667,-33.7667,-0.420888)">
        <path d="M119.257,80.571L112.835,97.063L115.131,113.555L105.311,94.711L119.257,80.571Z" style="fill:rgb(0,91,169);"/>
    </g>
    <g transform="matrix(4.16667,0,0,4.16667,-33.7667,-0.420888)">
        <path d="M109.784,78.732L119.257,80.571L100.223,106.817L86.135,72.023L96.739,66.967L109.277,70.313L109.784,78.732Z" style="fill:rgb(102,45,142);"/>
    </g>
    <g transform="matrix(4.16667,0,0,4.16667,-33.7667,-0.420888)">
        <path d="M112.935,41.875L117.974,44.367L122.196,45.876L123.159,43.209L123.9,39.357L112.935,41.875Z" style="fill:rgb(251,170,38);"/>
    </g>
    <g transform="matrix(4.16667,0,0,4.16667,-33.7667,-0.420888)">
        <path d="M95.779,67.047C96.501,67.047 119.791,65.888 119.791,65.888L111.559,71.975L106.85,72.061L95.779,67.047Z" style="fill:rgb(142,88,164);"/>
    </g>
    <g transform="matrix(4.16667,0,0,4.16667,-33.7667,-0.420888)">
        <path d="M138.855,45.432L157.486,61.157L155.24,63.8L138.855,45.432Z" style="fill:rgb(228,23,62);"/>
    </g>
    <g transform="matrix(4.16667,0,0,4.16667,-33.7667,-0.420888)">
        <path d="M155.504,67.896L145.462,77.146L140.837,78.467L151.804,64.526L155.504,67.896Z" style="fill:rgb(228,23,62);"/>
    </g>
    <g transform="matrix(4.16667,0,0,4.16667,-33.7667,-0.420888)">
        <path d="M157.486,61.157L146.122,61.553L155.504,67.896L157.486,61.157Z" style="fill:rgb(165,34,56);"/>
    </g>
    <g transform="matrix(4.16667,0,0,4.16667,-33.7667,-0.420888)">
        <path d="M123.119,82.054L147.945,74.858L145.374,81.621L123.119,82.054Z" style="fill:rgb(166,34,142);"/>
    </g>
    <g transform="matrix(4.16667,0,0,4.16667,-33.7667,-0.420888)">
        <path d="M128.679,90.749L143.214,87.71L137.4,95.638L128.679,90.749Z" style="fill:rgb(0,91,169);"/>
    </g>
    <g transform="matrix(4.16667,0,0,4.16667,-33.7667,-0.420888)">
        <path d="M119.791,65.888L109.784,78.732L106.85,72.061L119.791,65.888Z" style="fill:rgb(63,30,108);"/>
    </g>
    <g transform="matrix(4.16667,0,0,4.16667,-33.7667,-0.420888)">
        <path d="M123.159,43.209L117.974,44.367L126.419,48.543L123.159,43.209Z" style="fill:rgb(207,51,49);"/>
    </g>
    <g transform="matrix(4.16667,0,0,4.16667,-33.7667,-0.420888)">
        <path d="M135.533,33.436L119.899,24.219L131.721,34.253L133.473,35.029L135.533,33.436Z" style="fill:rgb(243,116,49);"/>
    </g>
    <g transform="matrix(4.16667,0,0,4.16667,-33.7667,-0.420888)">
        <path d="M42.121,40.641L9.709,89.562L35.115,71.108L42.121,40.641Z" style="fill:rgb(245,129,86);"/>
    </g>
    <g transform="matrix(4.16667,0,0,4.16667,-33.7667,-0.420888)">
        <path d="M32.687,44.388L8.104,74.505L56.873,34.782L32.687,44.388Z" style="fill:rgb(239,57,66);"/>
    </g>
    <g transform="matrix(4.16667,0,0,4.16667,-33.7667,-0.420888)">
        <path d="M84.289,22.678L71.003,28.544L64.244,34.256L47.886,38.75L15.022,53.259L48.269,27.604L84.289,22.678Z" style="fill:rgb(246,140,80);"/>
    </g>
    <g transform="matrix(4.16667,0,0,4.16667,-33.7667,-0.420888)">
        <path d="M38.974,96.931L28.227,104.669L39.198,83.825L47.726,72.04L38.974,96.931Z" style="fill:rgb(201,133,185);"/>
    </g>
    <g transform="matrix(4.16667,0,0,4.16667,-33.7667,-0.420888)">
        <path d="M111.821,30.232L80.106,21.143L69.307,21.575L48.269,27.604L71.003,28.544L83.767,30.285L111.821,30.232Z" style="fill:rgb(239,70,56);"/>
    </g>
    <g transform="matrix(4.16667,0,0,4.16667,-33.7667,-0.420888)">
        <path d="M59.535,108.136L40.248,124.98L51.887,101.412L59.535,108.136Z" style="fill:rgb(125,114,181);"/>
    </g>
    <g transform="matrix(4.16667,0,0,4.16667,-33.7667,-0.420888)">
        <path d="M76.752,34.769L55.233,57.168L49.451,67.622L39.364,74.051L24.55,89.615L32.783,75.189L33.853,69.703L45.535,52.878L50.113,48.135L76.752,34.769Z" style="fill:rgb(240,98,138);"/>
    </g>
    <g transform="matrix(4.16667,0,0,4.16667,-33.7667,-0.420888)">
        <path d="M51.887,101.412L60.108,123.949L64.231,100.181L69.073,86.067L68.16,77.538L69.832,67.9L51.887,101.412Z" style="fill:rgb(96,174,225);"/>
    </g>
    <g transform="matrix(4.16667,0,0,4.16667,-33.7667,-0.420888)">
        <path d="M87.404,50.326L51.76,101.672L52.952,92.067L51.771,85.991L55.78,71.034L74.412,54.514L87.404,50.326Z" style="fill:rgb(235,52,146);"/>
    </g>
    <g transform="matrix(4.16667,0,0,4.16667,-33.7667,-0.420888)">
        <path d="M101.685,40.976L96.46,68.434L89.8,70.275L85.655,57.571L87.404,50.326L92.381,45.298L101.685,40.976Z" style="fill:rgb(63,30,108);"/>
    </g>
    <g transform="matrix(4.16667,0,0,4.16667,-33.7667,-0.420888)">
        <path d="M91.009,102.201L106.979,124.799L87.945,69.669L91.009,102.201Z" style="fill:rgb(5,96,174);"/>
    </g>
    <g transform="matrix(4.16667,0,0,4.16667,-33.7667,-0.420888)">
        <path d="M75.531,94.152L94.87,121.334L89.094,72.998L81.445,81.571L75.531,94.152Z" style="fill:rgb(0,178,205);"/>
    </g>
    <g transform="matrix(4.16667,0,0,4.16667,-33.7667,-0.420888)">
        <path d="M94.496,52.306L87.852,62.388L83.836,66.041L81.208,72.47L77.552,80.455L75.531,94.152L89.094,72.998L94.496,52.306Z" style="fill:rgb(187,77,156);"/>
    </g>
    <g transform="matrix(4.16667,0,0,4.16667,-33.7667,-0.420888)">
        <path d="M101.685,40.976L79.029,44.504L63.636,58.239L55.78,71.034L101.685,40.976Z" style="fill:rgb(166,34,142);"/>
    </g>
    <g transform="matrix(4.16667,0,0,4.16667,-33.7667,-0.420888)">
        <path d="M127.342,11.283L91.324,1.005L98.57,5.849L102.311,10.635L111.659,14.603L116.802,15.549L127.342,11.283Z" style="fill:rgb(255,229,22);"/>
    </g>
    <g transform="matrix(4.16667,0,0,4.16667,-33.7667,-0.420888)">
        <path d="M82.056,6.371L59.324,7.473L30.902,22.671L53.862,17.758L68.944,15.68L94.733,9.011L82.056,6.371Z" style="fill:rgb(255,229,22);"/>
    </g>
    <g transform="matrix(4.16667,0,0,4.16667,-33.7667,-0.420888)">
        <path d="M95.976,17.922L109.908,16.999L111.659,14.603L98.57,5.849L74.499,0.101L87.185,10.627L88.916,14.624L95.976,17.922Z" style="fill:rgb(251,170,38);"/>
    </g>
    <g transform="matrix(4.16667,0,0,4.16667,-33.7667,-0.420888)">
        <path d="M68.16,77.538L72.415,80.291L81.468,72.239L87.852,62.388L87.404,50.326L68.16,77.538Z" style="fill:rgb(102,45,142);"/>
    </g>
    <g transform="matrix(4.16667,0,0,4.16667,-33.7667,-0.420888)">
        <path d="M81.468,72.239L77.722,81.234L64.231,100.181L68.16,77.538L81.468,72.239Z" style="fill:rgb(177,111,175);"/>
    </g>
    <g transform="matrix(4.16667,0,0,4.16667,-33.7667,-0.420888)">
        <path d="M64.231,100.181L75.531,94.152L81.561,71.893L64.231,100.181Z" style="fill:rgb(92,23,106);"/>
    </g>
    <g transform="matrix(4.16667,0,0,4.16667,-33.7667,-0.420888)">
        <path d="M75.531,94.152L67.427,123.943L84.281,104.211L75.531,94.152Z" style="fill:rgb(89,201,230);"/>
    </g>
    <g transform="matrix(4.16667,0,0,4.16667,-33.7667,-0.420888)">
        <path d="M79.029,44.504L92.23,32.91L83.512,32.803L75.853,35.104L50.797,61.914L72.818,50.046L79.029,44.504Z" style="fill:rgb(239,57,66);"/>
    </g>
    <g transform="matrix(4.16667,0,0,4.16667,-33.7667,-0.420888)">
        <path d="M75.853,35.104L111.821,30.232L71.003,28.544L70.413,32.674L75.853,35.104Z" style="fill:rgb(210,18,73);"/>
    </g>
    <g transform="matrix(4.16667,0,0,4.16667,-33.7667,-0.420888)">
        <path d="M95.976,17.922L111.821,30.232L75.578,22.062L81.85,19.435L95.976,17.922Z" style="fill:rgb(243,116,49);"/>
    </g>
    <g transform="matrix(4.16667,0,0,4.16667,-33.7667,-0.420888)">
        <path d="M95.976,17.922L87.185,10.627L52.877,17.968L65.306,17.955L71.76,19.405L95.976,17.922Z" style="fill:rgb(242,103,33);"/>
    </g>
    <g transform="matrix(4.16667,0,0,4.16667,-33.7667,-0.420888)">
        <path d="M48.269,27.604L65.306,17.955L95.976,17.922L48.269,27.604Z" style="fill:rgb(251,170,38);"/>
    </g>
    <g transform="matrix(4.16667,0,0,4.16667,-33.7667,-0.420888)">
        <path d="M65.306,17.955L36.194,27.509L11.366,45.327L50.877,27.712L65.306,17.955Z" style="fill:rgb(255,239,0);"/>
    </g>
    <g transform="matrix(4.16667,0,0,4.16667,-33.7667,-0.420888)">
        <path d="M75.853,35.104L71.003,28.544L47.886,38.75L60.446,40.892L75.853,35.104Z" style="fill:rgb(242,99,33);"/>
    </g>
    <g transform="matrix(4.16667,0,0,4.16667,-33.7667,-0.420888)">
        <path d="M49.047,38.598L44.672,48.261L45.535,52.878L76.384,35.032L49.047,38.598Z" style="fill:rgb(205,20,66);"/>
    </g>
    <g transform="matrix(4.16667,0,0,4.16667,-33.7667,-0.420888)">
        <path d="M45.535,52.878L37.423,64.561L23.413,76.821L38.671,49.114L49.047,38.598L45.535,52.878Z" style="fill:rgb(228,5,111);"/>
    </g>
    <g transform="matrix(4.16667,0,0,4.16667,-33.7667,-0.420888)">
        <path d="M23.413,76.821L32.783,75.189L45.535,52.878L23.413,76.821Z" style="fill:rgb(180,1,91);"/>
    </g>
    <g transform="matrix(4.16667,0,0,4.16667,-33.7667,-0.420888)">
        <path d="M51.574,61.097L52.456,63.18L53.464,69.843L55.78,71.034L79.029,44.504L51.574,61.097Z" style="fill:rgb(202,87,160);"/>
    </g>
    <g transform="matrix(4.16667,0,0,4.16667,-33.7667,-0.420888)">
        <path d="M55.78,71.034L53.218,78.835L50.187,79.653L38.974,96.931L51.687,61.365L55.78,71.034Z" style="fill:rgb(128,14,105);"/>
    </g>
    <g transform="matrix(4.16667,0,0,4.16667,-33.7667,-0.420888)">
        <path d="M42.012,104.088L52.952,92.067L55.78,71.034L50.187,79.653L42.012,104.088Z" style="fill:rgb(173,8,117);"/>
    </g>
    <g transform="matrix(4.16667,0,0,4.16667,-33.7667,-0.420888)">
        <path d="M39.364,74.051L38.974,96.931L55.233,57.168L39.364,74.051Z" style="fill:rgb(221,17,84);"/>
    </g>
    <g transform="matrix(4.16667,0,0,4.16667,-33.7667,-0.420888)">
        <path d="M86.426,81.421L89.571,113.885L75.387,133.943L86.426,81.421Z" style="fill:rgb(141,91,166);"/>
    </g>
    <g transform="matrix(4.16667,0,0,4.16667,-33.7667,-0.420888)">
        <path d="M115.64,25.848L127.342,11.283L95.976,17.922L115.64,25.848Z" style="fill:rgb(243,116,36);"/>
    </g>
    <g transform="matrix(4.16667,0,0,4.16667,-33.7667,-0.420888)">
        <path d="M97.339,107.174L102.173,77.115L93.471,85.677L97.339,107.174Z" style="fill:rgb(142,88,164);"/>
    </g>
    <g transform="matrix(4.16667,0,0,4.16667,-33.7667,-0.420888)">
        <path d="M135.268,40.094L135.533,33.436L131.721,34.253L135.268,40.094Z" style="fill:rgb(210,18,73);"/>
    </g>
</svg>
